<svg width="23" height="23" viewBox="0 0 23 23" fill="none" xmlns="http://www.w3.org/2000/svg">
<path d="M18.259 14.2292C17.9639 14.5152 17.8283 14.9287 17.8955 15.3344L18.9084 20.9401C18.9939 21.4152 18.7933 21.896 18.3957 22.1706C18.006 22.4555 17.4876 22.4897 17.0626 22.2618L12.0163 19.6298C11.8408 19.5364 11.646 19.4863 11.4466 19.4806H11.1378C11.0307 19.4965 10.9259 19.5307 10.8302 19.5831L5.78277 22.2276C5.53324 22.3529 5.25068 22.3974 4.97381 22.3529C4.2993 22.2253 3.84924 21.5827 3.95976 20.9048L4.97381 15.299C5.04103 14.89 4.90545 14.4741 4.61035 14.1836L0.496052 10.1958C0.15196 9.86193 0.0323249 9.36061 0.189559 8.90827C0.342236 8.45708 0.731903 8.1278 1.20247 8.05374L6.86518 7.23225C7.29586 7.18781 7.67413 6.92575 7.86783 6.53837L10.3631 1.42256C10.4223 1.30862 10.4987 1.2038 10.5909 1.11493L10.6935 1.03517C10.747 0.975922 10.8086 0.926929 10.8769 0.88705L11.0011 0.841475L11.1948 0.761719H11.6745C12.1029 0.806154 12.48 1.06251 12.6771 1.44535L15.2054 6.53837C15.3877 6.91094 15.7421 7.16958 16.1511 7.23225L21.8138 8.05374C22.2924 8.1221 22.6923 8.45252 22.8506 8.90827C22.9999 9.36516 22.8712 9.86649 22.5202 10.1958L18.259 14.2292Z" fill="white"/>
</svg>
